<?xml version="1.0" encoding="UTF-8" standalone="no"?>
<svg
   xmlns:dc="http://purl.org/dc/elements/1.1/"
   xmlns:cc="http://creativecommons.org/ns#"
   xmlns:rdf="http://www.w3.org/1999/02/22-rdf-syntax-ns#"
   xmlns:svg="http://www.w3.org/2000/svg"
   xmlns="http://www.w3.org/2000/svg"
   xmlns:sodipodi="http://sodipodi.sourceforge.net/DTD/sodipodi-0.dtd"
   xmlns:inkscape="http://www.inkscape.org/namespaces/inkscape"
   fill="#231F20"
   width="111.539"
   height="38.044998"
   viewBox="76.5 72.205 111.539 38.045"
   version="1.1"
   id="svg46"
   sodipodi:docname="dark.svg"
   inkscape:version="1.0.2-2 (e86c870879, 2021-01-15)">
  <metadata
     id="metadata52">
    <rdf:RDF>
      <cc:Work
         rdf:about="">
        <dc:format>image/svg+xml</dc:format>
        <dc:type
           rdf:resource="http://purl.org/dc/dcmitype/StillImage" />
        <dc:title></dc:title>
      </cc:Work>
    </rdf:RDF>
  </metadata>
  <defs
     id="defs50" />
  <sodipodi:namedview
     pagecolor="#ffffff"
     bordercolor="#666666"
     borderopacity="1"
     objecttolerance="10"
     gridtolerance="10"
     guidetolerance="10"
     inkscape:pageopacity="0"
     inkscape:pageshadow="2"
     inkscape:window-width="1920"
     inkscape:window-height="1017"
     id="namedview48"
     showgrid="false"
     inkscape:zoom="5.2444006"
     inkscape:cx="44.693307"
     inkscape:cy="35.912195"
     inkscape:window-x="1912"
     inkscape:window-y="-8"
     inkscape:window-maximized="1"
     inkscape:current-layer="text56" />
  <g
     inkscape:groupmode="layer"
     id="layer1"
     inkscape:label="Layer 1">
    <g
       aria-label="Miphα"
       id="text56"
       style="font-size:31.2067px;line-height:1.25;font-family:'Noto Sans JP';-inkscape-font-specification:'Noto Sans JP';stroke-width:0.780168">
      <path
         d="m 103.81723,101.49162 h 2.62137 V 88.821703 c 0,-1.966022 -0.21845,-4.743418 -0.34328,-6.740647 h 0.12483 l 1.80999,5.211519 4.33773,11.889752 h 1.93481 l 4.33774,-11.889752 1.80998,-5.211519 h 0.12483 c -0.15603,1.997229 -0.37448,4.774625 -0.37448,6.740647 v 12.669917 h 2.71498 V 78.585906 h -3.49515 l -4.36893,12.264232 c -0.53052,1.591542 -1.02983,3.183084 -1.56034,4.774625 h -0.15603 c -0.56172,-1.591541 -1.09224,-3.183083 -1.62275,-4.774625 l -4.40015,-12.264232 h -3.49515 z"
         style="font-style:normal;font-variant:normal;font-weight:normal;font-stretch:normal;font-family:'Noto Sans JP';-inkscape-font-specification:'Noto Sans JP';stroke-width:0.780168"
         id="path66" />
      <path
         d="m 126.90737,101.49162 h 2.83981 V 84.546385 h -2.83981 z m 1.43551,-20.440385 c 1.12344,0 1.90361,-0.748961 1.90361,-1.903609 0,-1.092234 -0.78017,-1.841195 -1.90361,-1.841195 -1.12344,0 -1.90361,0.748961 -1.90361,1.841195 0,1.154648 0.78017,1.903609 1.90361,1.903609 z"
         style="font-style:normal;font-variant:normal;font-weight:normal;font-stretch:normal;font-family:'Noto Sans JP';-inkscape-font-specification:'Noto Sans JP';stroke-width:0.780168"
         id="path68" />
      <path
         d="m 133.4892,108.63796 h 2.83981 v -5.74204 l -0.0624,-2.964632 c 1.52912,1.248272 3.15187,1.966022 4.681,1.966022 3.90084,0 7.36478,-3.339117 7.36478,-9.143563 0,-5.211519 -2.37171,-8.644256 -6.74065,-8.644256 -1.96602,0 -3.86963,1.123442 -5.39875,2.37171 h -0.0936 l -0.24966,-1.934816 h -2.3405 z m 6.9903,-9.112359 c -1.12344,0 -2.62136,-0.468101 -4.15049,-1.778782 V 88.85291 c 1.65395,-1.529129 3.12067,-2.340503 4.55618,-2.340503 3.21429,0 4.46256,2.527743 4.46256,6.272547 0,4.212904 -2.05965,6.740647 -4.86825,6.740647 z"
         style="font-style:normal;font-variant:normal;font-weight:normal;font-stretch:normal;font-family:'Noto Sans JP';-inkscape-font-specification:'Noto Sans JP';stroke-width:0.780168"
         id="path70" />
      <path
         d="m 150.83732,101.49162 h 2.83981 V 89.196183 c 1.71637,-1.716368 2.90222,-2.590156 4.6498,-2.590156 2.24688,0 3.21429,1.341888 3.21429,4.524972 v 10.360621 h 2.8398 V 90.756518 c 0,-4.337731 -1.62274,-6.647027 -5.18031,-6.647027 -2.30929,0 -4.05687,1.279475 -5.6172,2.83981 l 0.0936,-3.49515 V 76.65109 h -2.83981 z"
         style="font-style:normal;font-variant:normal;font-weight:normal;font-stretch:normal;font-family:'Noto Sans JP';-inkscape-font-specification:'Noto Sans JP';stroke-width:0.780168"
         id="path72" />
      <path
         d="m 173.05367,101.89731 c 2.18447,0 3.96325,-1.15465 5.24273,-3.432737 h 0.12482 c -0.0312,2.371707 1.31068,3.432737 3.33912,3.432737 0.99861,0 1.68516,-0.21845 2.18447,-0.43689 l -0.4369,-2.153266 c -0.34327,0.124827 -0.78016,0.218447 -1.15464,0.218447 -0.9362,0 -1.68516,-0.592927 -1.68516,-1.747575 0,-3.089464 1.21706,-8.769083 2.12205,-13.231641 h -2.8086 l -0.71776,4.025664 h -0.0936 c -0.9674,-3.245496 -3.12067,-4.462558 -5.24272,-4.462558 -3.90084,0 -7.4272,3.401531 -7.4272,9.205977 0,5.554792 2.68378,8.581842 6.55341,8.581842 z m 0.56172,-2.371709 c -2.62136,0 -4.15049,-2.278089 -4.15049,-6.24134 0,-4.462558 2.3405,-6.771854 4.77463,-6.771854 1.59154,0 3.33911,0.842581 4.27531,4.524972 l -0.24965,3.21429 c -0.24965,2.871016 -2.40292,5.273932 -4.6498,5.273932 z"
         style="font-style:normal;font-variant:normal;font-weight:normal;font-stretch:normal;font-family:'Noto Sans JP';-inkscape-font-specification:'Noto Sans JP';stroke-width:0.780168"
         id="path74" />
    </g>
  </g>
  <path
     d="m 80.5,96.834 h 2 v -12 h -2 z m 4,4 h 2 v -20 h -2 z m -8,-8 h 2 v -4 h -2 z m 12,4 h 2 v -12 h -2 z m 4,-8 v 4 h 2 v -4 z"
     id="path44" />
</svg>
